#!OML:ASF H:\Terrain\Patient Classification 1\Terrain2\Thursday\justin.ASF
:FULLY-SPECIFIED
:DEGREES
2557
root 15.5339 24.1134 20.465 1789.16 81.0551 -374.194
lowerback 12.972 1.92664 -2.1599
upperback 2.08644 2.37191 0.813937
thorax -5.19419 1.24266 1.66083
lowerneck -14.1681 -2.00843 -8.91842
upperneck 34.7121 -1.05704 5.47332
head 14.3838 -0.510078 3.74958
rclavicle 9.6659e-015 3.47873e-015
rhumerus -30.2647 -1.20801 -85.0226
rradius 36.9044
rwrist -13.084
rhand -18.5234 11.0075
rfingers 7.12502
rthumb 7.76521 -18.8299
lclavicle 9.6659e-015 3.47873e-015
lhumerus -33.0868 2.27451 82.5215
lradius 40.1701
lwrist 7.18675
lhand -18.5692 21.0967
lfingers 7.12502
lthumb 7.72097 50.9357
rfemur -24.3821 -6.18398 21.1186
rtibia 72.6455
rfoot -6.53606 -3.58155
rtoes 5.00412
lfemur -17.2435 1.97306 -21.2495
ltibia 27.6154
lfoot -9.64873 -6.1199
ltoes 16.1017
2558
root 15.6025 24.1495 20.4623 1790.43 81.1183 -372.839
lowerback 12.8639 1.8681 -2.37697
upperback 2.09962 2.26869 0.847272
thorax -5.12533 1.1953 1.8397
lowerneck -14.1874 -1.97191 -9.30167
upperneck 34.7889 -1.03895 5.91607
head 14.4261 -0.493487 4.01006
rclavicle 1.5704e-014 1.26228e-014
rhumerus -30.2951 -1.09528 -84.8986
rradius 37.2593
rwrist -13.2146
rhand -18.5395 11.068
rfingers 7.12502
rthumb 7.74963 -18.7699
lclavicle 1.5704e-014 1.26228e-014
lhumerus -32.9798 2.23941 82.5679
lradius 40.2927
lwrist 7.22108
lhand -18.2849 21.15
lfingers 7.12502
lthumb 7.99537 50.9787
rfemur -24.8939 -6.05102 20.9351
rtibia 71.9208
rfoot -7.71938 -3.4198
rtoes 10.8587
lfemur -16.4511 1.62689 -21.4984
ltibia 26.845
lfoot -9.43013 -5.86402
ltoes 18.2098
2559
root 15.6772 24.1853 20.4579 1790.44 81.1434 -372.786
lowerback 12.716 1.88802 -2.17995
upperback 2.06313 2.32093 0.804913
thorax -5.07548 1.21643 1.67871
lowerneck -13.9014 -2.06426 -9.01515
upperneck 34.6892 -1.21849 5.7238
head 14.3296 -0.556423 3.84274
rclavicle -1.04362e-015 -2.05742e-014
rhumerus -30.4963 -1.26244 -84.7976
rradius 37.7083
rwrist -13.4361
rhand -18.4335 11.0081
rfingers 7.12502
rthumb 7.85195 -18.8261
lclavicle -1.04362e-015 -2.05742e-014
lhumerus -32.7884 1.32029 82.5829
lradius 40.3269
lwrist 7.65419
lhand -18.1926 21.1983
lfingers 7.12502
lthumb 8.08448 51.0237
rfemur -25.3309 -5.9669 20.987
rtibia 71.0095
rfoot -8.98514 -3.35693
rtoes 8.21573
lfemur -15.7865 1.25553 -21.5177
ltibia 26.3208
lfoot -9.38859 -5.67845
ltoes 21.2483
2560
root 15.7487 24.2174 20.4546 1788.26 81.0297 -375.061
lowerback 12.5077 1.89675 -1.54842
upperback 1.97823 2.4154 0.761982
thorax -5.02692 1.25063 1.26658
lowerneck -13.628 -2.10743 -8.26612
upperneck 34.5322 -1.36274 5.24551
head 14.1968 -0.582485 3.47865
rclavicle 2.30342e-014 -3.08116e-015
rhumerus -30.727 -1.40609 -84.9082
rradius 38.1634
rwrist -13.74
rhand -18.7358 11.1438
rfingers 7.12502
rthumb 7.56022 -18.7011
lclavicle 2.30342e-014 -3.08116e-015
lhumerus -32.6451 0.330992 82.4555
lradius 40.361
lwrist 7.98754
lhand -18.5528 21.0905
lfingers 7.12502
lthumb 7.73681 50.929
rfemur -25.8966 -5.72798 21.5784
rtibia 70.1161
rfoot -10.1397 -3.41939
rtoes 4.19242
lfemur -15.1031 0.755207 -21.0931
ltibia 25.4268
lfoot -9.39379 -5.24296
ltoes 22.7534
2561
root 15.819 24.2302 20.4478 1788.34 80.8853 -375.074
lowerback 12.1714 1.54634 -1.76614
upperback 2.05573 1.94849 1.12496
thorax -4.76259 1.02558 1.8574
lowerneck -14.0991 -1.74835 -8.80216
upperneck 34.7483 -0.583076 5.08813
head 14.3381 -0.344994 3.64325
rclavicle 6.53505e-015 -1.10325e-014
rhumerus -30.422 0.180001 -84.8917
rradius 38.4864
rwrist -14.1778
rhand -18.8397 11.3244
rfingers 7.12502
rthumb 7.45992 -18.5241
lclavicle 6.53505e-015 -1.10325e-014
lhumerus -32.7459 1.31609 82.503
lradius 40.6481
lwrist 7.98276
lhand -18.8632 21.4517
lfingers 7.12502
lthumb 7.43719 51.301
rfemur -26.5147 -5.46411 21.7558
rtibia 69.0742
rfoot -11.0981 -3.46635
rtoes 1.69472
lfemur -14.6027 0.539607 -21.1489
ltibia 24.8062
lfoot -9.84661 -4.61426
ltoes 19.3823
2562
root 15.8914 24.2302 20.4423 1789.89 80.8247 -373.531
lowerback 11.9659 1.53131 -1.89122
upperback 2.04348 1.9123 1.09381
thorax -4.6631 1.00808 1.90577
lowerneck -14.0998 -1.74923 -8.90248
upperneck 34.7896 -0.560596 5.11053
head 14.3566 -0.345963 3.67585
rclavicle 2.21148e-015 -1.00883e-014
rhumerus -30.5137 0.158118 -84.7853
rradius 38.9472
rwrist -14.1066
rhand -18.6277 11.264
rfingers 7.12502
rthumb 7.66446 -18.5771
lclavicle 2.21148e-015 -1.00883e-014
lhumerus -32.7674 1.15408 82.4976
lradius 40.8586
lwrist 7.66278
lhand -17.9038 21.4174
lfingers 7.12502
lthumb 8.36319 51.2318
rfemur -27.0146 -5.28737 21.5817
rtibia 67.9407
rfoot -12.1811 -3.14104
rtoes -0.753518
lfemur -14.1939 0.789651 -21.6238
ltibia 24.4645
lfoot -10.3718 -4.01539
ltoes 11.5322
2563
root 15.9612 24.2395 20.4451 1790.84 80.8484 -372.593
lowerback 11.8395 1.58906 -1.86946
upperback 2.00398 1.98698 1.00514
thorax -4.63445 1.04322 1.79119
lowerneck -13.941 -1.87319 -8.75383
upperneck 34.7052 -0.784862 5.05227
head 14.3016 -0.429056 3.58475
rclavicle 5.0131e-015 1.2424e-015
rhumerus -30.6683 -0.407781 -84.637
rradius 39.4275
rwrist -13.8081
rhand -18.7171 11.1064
rfingers 7.12502
rthumb 7.5782 -18.7378
lclavicle 5.0131e-015 1.2424e-015
lhumerus -32.6326 0.986315 82.4812
lradius 40.8449
lwrist 7.0525
lhand -16.3446 20.1016
lfingers 7.12502
lthumb 9.86773 49.8503
rfemur -27.4697 -5.05911 21.4958
rtibia 66.6963
rfoot -13.1104 -2.65058
rtoes -0.41358
lfemur -13.8825 0.835412 -21.9001
ltibia 24.2296
lfoot -10.514 -3.76421
ltoes 8.50706
2564
root 16.027 24.2573 20.4485 1791.67 80.8742 -371.799
lowerback 11.7586 1.53329 -1.95681
upperback 1.92139 1.89875 0.969374
thorax -4.67369 1.00072 1.8179
lowerneck -14.019 -1.9014 -8.796
upperneck 34.9492 -0.828698 5.15394
head 14.4364 -0.440589 3.6403
rclavicle -4.5677e-014 8.05078e-015
rhumerus -30.7934 -0.464881 -84.6417
rradius 39.8435
rwrist -13.8489
rhand -18.8035 11.0446
rfingers 7.12502
rthumb 7.49486 -18.8026
lclavicle -4.5677e-014 8.05078e-015
lhumerus -32.5647 0.78228 82.4669
lradius 40.8334
lwrist 7.11731
lhand -16.3871 18.989
lfingers 7.12502
lthumb 9.82667 48.7397
rfemur -27.9385 -4.76763 21.4211
rtibia 65.3875
rfoot -13.7897 -2.05216
rtoes 3.27384
lfemur -13.5831 0.179551 -21.9448
ltibia 24.1001
lfoot -10.4157 -3.73547
ltoes 14.612
2565
root 16.0915 24.2618 20.4468 1791.6 80.9461 -371.925
lowerback 11.6684 1.38347 -1.90898
upperback 1.86665 1.70831 1.01404
thorax -4.67206 0.906192 1.86905
lowerneck -14.2133 -1.87913 -8.90074
upperneck 35.2161 -0.77434 5.26229
head 14.601 -0.419126 3.72795
rclavicle -3.32778e-014 4.64659e-015
rhumerus -30.8452 -0.140923 -84.6731
rradius 40.2391
rwrist -14.1146
rhand -18.7071 11.1208
rfingers 7.12502
rthumb 7.58783 -18.7231
lclavicle -3.32778e-014 4.64659e-015
lhumerus -32.5859 0.541029 82.5107
lradius 41.0221
lwrist 7.32219
lhand -17.4623 19.1949
lfingers 7.12502
lthumb 8.78921 48.9919
rfemur -28.4254 -4.605 21.5005
rtibia 64.1079
rfoot -14.6858 -1.48883
rtoes 6.34243
lfemur -13.2207 -0.86474 -21.7902
ltibia 24.0565
lfoot -10.4914 -3.75481
ltoes 23.3845
2566
root 16.15 24.2442 20.4493 1791.02 80.9554 -372.652
lowerback 11.5357 1.25714 -1.89737
upperback 1.83415 1.55419 1.21742
thorax -4.63066 0.83118 2.10162
lowerneck -14.358 -1.8386 -8.94389
upperneck 35.2663 -0.626024 5.07698
head 14.6454 -0.389119 3.68488
rclavicle -1.40205e-014 2.70223e-015
rhumerus -30.8171 0.419257 -84.5269
rradius 40.6897
rwrist -14.5254
rhand -18.8447 11.234
rfingers 7.12502
rthumb 7.45508 -18.6147
lclavicle -1.40205e-014 2.70223e-015
lhumerus -32.5196 0.557632 82.6828
lradius 41.1718
lwrist 7.22761
lhand -17.6571 19.8693
lfingers 7.12502
lthumb 8.60125 49.6741
rfemur -29.0397 -4.38204 21.7946
rtibia 62.7129
rfoot -15.6237 -1.35437
rtoes 4.80855
lfemur -13.0646 -1.25986 -21.6344
ltibia 24.0197
lfoot -10.7727 -4.07017
ltoes 26.0824
2567
root 16.2075 24.2113 20.4569 1792.03 80.9467 -371.668
lowerback 11.5118 1.23001 -2.18857
upperback 1.76797 1.48385 1.27626
thorax -4.69194 0.802239 2.33866
lowerneck -14.2615 -1.75242 -8.64801
upperneck 35.2013 -0.473112 4.72048
head 14.5765 -0.331743 3.50286
rclavicle 1.7698e-014 -5.8393e-015
rhumerus -30.9335 0.69126 -84.4459
rradius 41.1487
rwrist -14.7807
rhand -19.1331 11.5567
rfingers 7.12502
rthumb 7.17663 -18.3016
lclavicle 1.7698e-014 -5.8393e-015
lhumerus -32.4095 0.136096 82.7595
lradius 41.109
lwrist 7.46397
lhand -17.6622 20.128
lfingers 7.12502
lthumb 8.59634 49.933
rfemur -29.6167 -3.97707 21.7526
rtibia 61.419
rfoot -16.4195 -1.05026
rtoes 3.44029
lfemur -12.9364 -0.620989 -21.9449
ltibia 23.9605
lfoot -11.0881 -4.39
ltoes 21.0725
2568
root 16.2827 24.2377 20.4588 1793.7 81.0333 -369.975
lowerback 11.3126 1.18897 -2.45078
upperback 1.79514 1.3984 1.23003
thorax -4.55294 0.761731 2.45489
lowerneck -14.1533 -1.66322 -8.33696
upperneck 35.0929 -0.345097 4.42479
head 14.4876 -0.27442 3.3384
rclavicle 1.82136e-014 7.87684e-015
rhumerus -30.9053 0.541949 -84.3818
rradius 41.4616
rwrist -14.6793
rhand -19.2179 11.9328
rfingers 7.12502
rthumb 7.09486 -17.9283
lclavicle 1.82136e-014 7.87684e-015
lhumerus -32.3559 -0.27879 82.8052
lradius 41.2095
lwrist 7.74407
lhand -17.9466 19.7642
lfingers 7.12502
lthumb 8.32182 49.5803
rfemur -29.7779 -3.60997 21.383
rtibia 59.8564
rfoot -17.3253 0.255387
rtoes 5.27739
lfemur -12.6337 -0.329548 -22.243
ltibia 23.8827
lfoot -10.9521 -4.89049
ltoes 24.6851
2569
root 16.3571 24.2047 20.4633 1794.75 81.0469 -368.997
lowerback 11.039 1.15562 -2.52092
upperback 1.78761 1.34899 1.20682
thorax -4.40707 0.735769 2.48153
lowerneck -14.0967 -1.65841 -8.1715
upperneck 35.1178 -0.323524 4.2396
head 14.484 -0.267793 3.23602
rclavicle -1.13245e-014 7.7526e-015
rhumerus -30.871 0.414329 -84.3002
rradius 41.7564
rwrist -14.8437
rhand -19.2879 11.8523
rfingers 7.12502
rthumb 7.02728 -18.0111
lclavicle -1.13245e-014 7.7526e-015
lhumerus -32.3398 -0.595062 82.8159
lradius 41.412
lwrist 7.84158
lhand -17.8331 19.2679
lfingers 7.12502
lthumb 8.43142 49.0796
rfemur -30.1891 -3.29458 21.1826
rtibia 58.3086
rfoot -18.1882 1.61169
rtoes 6.57293
lfemur -12.4706 1.00687 -22.5969
ltibia 23.9206
lfoot -11.0879 -5.40148
ltoes 17.5513
2570
root 16.419 24.1775 20.4684 1794.56 80.9625 -369.191
lowerback 11.1693 1.18782 -2.36317
upperback 1.55634 1.39673 1.10974
thorax -4.71864 0.760326 2.27999
lowerneck -13.634 -1.71193 -7.79187
upperneck 35.2294 -0.505478 4.17006
head 14.4407 -0.298874 3.11274
rclavicle 5.55355e-015 9.49197e-015
rhumerus -31.3129 0.095751 -84.3728
rradius 42.0525
rwrist -15.1301
rhand -19.4815 11.8897
rfingers 7.12502
rthumb 6.84034 -17.9798
lclavicle 5.55355e-015 9.49197e-015
lhumerus -32.5672 -1.19347 82.68
lradius 41.526
lwrist 7.88164
lhand -17.9665 19.2269
lfingers 7.12502
lthumb 8.30264 49.0437
rfemur -30.5326 -2.90076 21.3354
rtibia 56.5218
rfoot -18.429 1.71206
rtoes 5.13956
lfemur -12.3098 2.1466 -22.7126
ltibia 24.0359
lfoot -11.8288 -5.18698
ltoes 0.433873
2571
root 16.4827 24.1812 20.4703 1792.49 80.9121 -371.256
lowerback 11.2073 1.0294 -2.07042
upperback 1.66412 1.23313 1.26728
thorax -4.61469 0.675071 2.30462
lowerneck -14.1658 -1.66459 -7.75501
upperneck 35.4386 -0.392708 4.12121
head 14.6509 -0.259515 3.11632
rclavicle 2.90288e-014 1.74185e-014
rhumerus -30.9275 0.13645 -84.3655
rradius 42.1099
rwrist -15.0708
rhand -19.3659 11.959
rfingers 7.12502
rthumb 6.95196 -17.9068
lclavicle 2.90288e-014 1.74185e-014
lhumerus -32.2301 -0.784798 82.5865
lradius 41.5212
lwrist 7.76059
lhand -18.1371 19.2631
lfingers 7.12502
lthumb 8.13802 49.0864
rfemur -30.6849 -2.52639 21.8159
rtibia 54.6118
rfoot -18.3885 1.38412
rtoes 1.35798
lfemur -12.0301 1.70776 -22.1939
ltibia 24.1113
lfoot -12.1448 -5.46167
ltoes 5.95882
